<svg id="visual" viewBox="0 0 540 960" width="540" height="960" xmlns="http://www.w3.org/2000/svg" xmlns:xlink="http://www.w3.org/1999/xlink" version="1.1"><rect x="0" y="0" width="540" height="960" fill="#fff"></rect><defs><linearGradient id="grad1_0" x1="0%" y1="100%" x2="100%" y2="0%"><stop offset="30%" stop-color="#ecc193" stop-opacity="1"></stop><stop offset="70%" stop-color="#ecc193" stop-opacity="1"></stop></linearGradient></defs><defs><linearGradient id="grad1_1" x1="0%" y1="100%" x2="100%" y2="0%"><stop offset="30%" stop-color="#ecc193" stop-opacity="1"></stop><stop offset="70%" stop-color="#ffffff" stop-opacity="1"></stop></linearGradient></defs><defs><linearGradient id="grad2_0" x1="0%" y1="100%" x2="100%" y2="0%"><stop offset="30%" stop-color="#ecc193" stop-opacity="1"></stop><stop offset="70%" stop-color="#ecc193" stop-opacity="1"></stop></linearGradient></defs><defs><linearGradient id="grad2_1" x1="0%" y1="100%" x2="100%" y2="0%"><stop offset="30%" stop-color="#ffffff" stop-opacity="1"></stop><stop offset="70%" stop-color="#ecc193" stop-opacity="1"></stop></linearGradient></defs><g transform="translate(540, 960)"><path d="M-378 0C-368.7 -67.1 -359.3 -134.1 -327.4 -189C-295.4 -243.9 -240.8 -286.6 -182.5 -316.1C-124.2 -345.6 -62.1 -361.8 0 -378L0 0Z" fill="#f8e0c8"></path><path d="M-189 0C-184.3 -33.5 -179.7 -67.1 -163.7 -94.5C-147.7 -121.9 -120.4 -143.3 -91.3 -158C-62.1 -172.8 -31 -180.9 0 -189L0 0Z" fill="#ecc193"></path></g><g transform="translate(0, 0)"><path d="M378 0C368.5 66.7 358.9 133.4 327.4 189C295.8 244.6 242.2 289.1 184 318.7C125.8 348.3 62.9 363.2 0 378L0 0Z" fill="#f8e0c8"></path><path d="M189 0C184.2 33.4 179.5 66.7 163.7 94.5C147.9 122.3 121.1 144.5 92 159.3C62.9 174.2 31.4 181.6 0 189L0 0Z" fill="#ecc193"></path></g></svg>