<svg id="visual" viewBox="0 0 900 600" width="900" height="600" xmlns="http://www.w3.org/2000/svg" xmlns:xlink="http://www.w3.org/1999/xlink" version="1.1"><path d="M0 34L15 40C30 46 60 58 90 65.3C120 72.7 150 75.3 180 67C210 58.7 240 39.3 270 31.7C300 24 330 28 360 29.3C390 30.7 420 29.3 450 31.7C480 34 510 40 540 47.2C570 54.3 600 62.7 630 70.2C660 77.7 690 84.3 720 78.2C750 72 780 53 810 52.8C840 52.7 870 71.3 885 80.7L900 90L900 0L885 0C870 0 840 0 810 0C780 0 750 0 720 0C690 0 660 0 630 0C600 0 570 0 540 0C510 0 480 0 450 0C420 0 390 0 360 0C330 0 300 0 270 0C240 0 210 0 180 0C150 0 120 0 90 0C60 0 30 0 15 0L0 0Z" fill="#c1ffc0" stroke-linecap="round" stroke-linejoin="miter"></path></svg>