<svg xmlns="http://www.w3.org/2000/svg" xmlns:xlink="http://www.w3.org/1999/xlink" width="500" zoomAndPan="magnify" viewBox="0 0 375 374.999991" height="500" preserveAspectRatio="xMidYMid meet" version="1.0"><defs><clipPath id="53f7f11176"><path d="M 38.414062 51.085938 L 336.914062 51.085938 L 336.914062 324 L 38.414062 324 Z M 38.414062 51.085938 " clip-rule="nonzero"/></clipPath></defs><g clip-path="url(#53f7f11176)"><path fill="#ffffff" d="M 336.390625 177.035156 C 336.511719 181.382812 336.390625 185.730469 336.015625 190.074219 C 335.210938 200.695312 333.410156 211.191406 330.613281 221.5 C 328.503906 229.386719 326.265625 237.152344 322.976562 244.664062 C 319.125 253.359375 315.460938 262.179688 310.617188 270.375 C 305.089844 279.691406 298.753906 288.449219 290.742188 295.902344 C 284.160156 301.988281 276.894531 307.140625 269.128906 311.675781 C 261.988281 315.773438 254.472656 319.003906 246.460938 320.804688 C 242.238281 321.800781 237.890625 322.296875 233.542969 322.855469 C 226.835938 323.722656 220.066406 323.910156 213.359375 323.664062 C 208.578125 323.476562 203.859375 322.917969 199.140625 322.296875 C 192.679688 321.425781 186.34375 320.183594 180.074219 318.507812 C 172.683594 316.519531 165.539062 313.851562 158.460938 310.992188 C 143.742188 304.96875 129.644531 297.640625 116.167969 289.195312 C 109.027344 284.722656 102.007812 280.25 95.113281 275.46875 C 86.417969 269.382812 78.40625 262.550781 71.140625 254.789062 C 64.871094 248.019531 59.464844 240.628906 54.871094 232.679688 C 48.910156 222.371094 44.683594 211.378906 41.765625 199.886719 C 40.460938 194.671875 39.59375 189.332031 39.097656 183.925781 C 38.722656 179.890625 38.476562 175.792969 38.597656 171.753906 C 38.847656 165.421875 39.53125 159.085938 40.710938 152.875 C 42.078125 145.296875 44.0625 137.90625 46.546875 130.578125 C 50.152344 119.960938 54.996094 109.898438 61.265625 100.644531 C 66.671875 92.570312 72.695312 85.058594 79.773438 78.351562 C 85.488281 72.945312 91.824219 68.414062 98.714844 64.5 C 104.925781 60.960938 111.324219 57.980469 118.09375 55.867188 C 124.054688 54.003906 130.140625 52.699219 136.414062 52.078125 C 143.308594 51.398438 150.136719 51.085938 157.09375 51.273438 C 161.132812 51.398438 165.105469 51.832031 169.082031 52.328125 C 173.425781 52.886719 177.710938 53.507812 181.996094 54.191406 C 192.246094 55.929688 202.183594 58.789062 211.683594 63.132812 C 214.789062 64.5625 217.832031 66.175781 220.8125 67.792969 C 224.476562 69.78125 228.390625 71.269531 232.300781 72.761719 C 239.570312 75.429688 247.082031 77.230469 254.785156 78.289062 C 256.832031 78.535156 258.945312 78.722656 260.996094 78.722656 C 261.988281 78.722656 262.980469 78.472656 263.914062 78.289062 C 267.886719 77.605469 271.863281 77.046875 275.835938 76.796875 C 280.929688 76.425781 285.960938 76.734375 290.867188 78.101562 C 300.367188 80.710938 308.628906 85.367188 315.210938 92.820312 C 320.429688 98.71875 324.339844 105.425781 327.199219 112.757812 C 330.054688 119.960938 331.980469 127.476562 333.160156 135.113281 C 334.03125 140.578125 334.835938 146.105469 335.394531 151.632812 C 335.707031 154.613281 335.890625 157.65625 336.015625 160.699219 C 336.140625 165.917969 336.511719 171.445312 336.390625 177.035156 Z M 336.390625 177.035156 " fill-opacity="1" fill-rule="nonzero"/></g></svg>