<svg id="visual" viewBox="0 0 900 600" width="900" height="600" xmlns="http://www.w3.org/2000/svg" xmlns:xlink="http://www.w3.org/1999/xlink" version="1.1"><path d="M0 417L21.5 408.5C43 400 86 383 128.8 375C171.7 367 214.3 368 257.2 370C300 372 343 375 385.8 387.2C428.7 399.3 471.3 420.7 514.2 416.3C557 412 600 382 642.8 370.3C685.7 358.7 728.3 365.3 771.2 378.3C814 391.3 857 410.7 878.5 420.3L900 430L900 601L878.5 601C857 601 814 601 771.2 601C728.3 601 685.7 601 642.8 601C600 601 557 601 514.2 601C471.3 601 428.7 601 385.8 601C343 601 300 601 257.2 601C214.3 601 171.7 601 128.8 601C86 601 43 601 21.5 601L0 601Z" fill="#6ecc6d"></path><path d="M0 453L21.5 456.7C43 460.3 86 467.7 128.8 462C171.7 456.3 214.3 437.7 257.2 429.8C300 422 343 425 385.8 420.8C428.7 416.7 471.3 405.3 514.2 408.7C557 412 600 430 642.8 440.5C685.7 451 728.3 454 771.2 451C814 448 857 439 878.5 434.5L900 430L900 601L878.5 601C857 601 814 601 771.2 601C728.3 601 685.7 601 642.8 601C600 601 557 601 514.2 601C471.3 601 428.7 601 385.8 601C343 601 300 601 257.2 601C214.3 601 171.7 601 128.8 601C86 601 43 601 21.5 601L0 601Z" fill="#8dd58b"></path><path d="M0 446L21.5 445C43 444 86 442 128.8 448.2C171.7 454.3 214.3 468.7 257.2 480.3C300 492 343 501 385.8 496C428.7 491 471.3 472 514.2 464.3C557 456.7 600 460.3 642.8 465.5C685.7 470.7 728.3 477.3 771.2 474.8C814 472.3 857 460.7 878.5 454.8L900 449L900 601L878.5 601C857 601 814 601 771.2 601C728.3 601 685.7 601 642.8 601C600 601 557 601 514.2 601C471.3 601 428.7 601 385.8 601C343 601 300 601 257.2 601C214.3 601 171.7 601 128.8 601C86 601 43 601 21.5 601L0 601Z" fill="#9ed99d"></path><path d="M0 496L21.5 494.8C43 493.7 86 491.3 128.8 490.2C171.7 489 214.3 489 257.2 495.2C300 501.3 343 513.7 385.8 521C428.7 528.3 471.3 530.7 514.2 525.8C557 521 600 509 642.8 503.7C685.7 498.3 728.3 499.7 771.2 501.8C814 504 857 507 878.5 508.5L900 510L900 601L878.5 601C857 601 814 601 771.2 601C728.3 601 685.7 601 642.8 601C600 601 557 601 514.2 601C471.3 601 428.7 601 385.8 601C343 601 300 601 257.2 601C214.3 601 171.7 601 128.8 601C86 601 43 601 21.5 601L0 601Z" fill="#8dd58b"></path><path d="M0 562L21.5 562.7C43 563.3 86 564.7 128.8 566.3C171.7 568 214.3 570 257.2 564C300 558 343 544 385.8 539.2C428.7 534.3 471.3 538.7 514.2 540.8C557 543 600 543 642.8 547.5C685.7 552 728.3 561 771.2 565.2C814 569.3 857 568.7 878.5 568.3L900 568L900 601L878.5 601C857 601 814 601 771.2 601C728.3 601 685.7 601 642.8 601C600 601 557 601 514.2 601C471.3 601 428.7 601 385.8 601C343 601 300 601 257.2 601C214.3 601 171.7 601 128.8 601C86 601 43 601 21.5 601L0 601Z" fill="#6ecc6d"></path></svg>