<svg xmlns="http://www.w3.org/2000/svg" xmlns:xlink="http://www.w3.org/1999/xlink" width="1080" zoomAndPan="magnify" viewBox="0 0 810 809.999993" height="1080" preserveAspectRatio="xMidYMid meet" version="1.0"><defs><clipPath id="d3766cb264"><path d="M 177 151.359375 L 702.296875 151.359375 L 702.296875 706.515625 L 177 706.515625 Z M 177 151.359375 " clip-rule="nonzero"/></clipPath></defs><path fill="#f7c340" d="M 497.472656 704.34375 C 473.296875 704.34375 451.496094 697.863281 430.820312 684.527344 C 407.652344 669.585938 386.804688 650.941406 366.644531 632.910156 C 363.089844 629.730469 359.535156 626.550781 355.964844 623.390625 C 345.824219 614.40625 335.476562 605.316406 325.472656 596.523438 C 290.074219 565.410156 253.464844 533.238281 219.085938 499.839844 C 211.53125 492.5 206.359375 486.066406 202.308594 478.976562 C 190.046875 457.484375 190.464844 448.996094 204.453125 435.71875 C 208.140625 432.222656 214.773438 430.21875 222.648438 430.21875 C 231.648438 430.21875 240.6875 432.792969 247.445312 437.28125 C 258.683594 444.742188 280.28125 464.332031 301.167969 483.285156 C 317.550781 498.144531 333.027344 512.183594 343.992188 520.914062 C 344.972656 521.691406 346.113281 522.101562 347.289062 522.101562 C 347.296875 522.101562 347.296875 522.101562 347.296875 522.101562 C 349.308594 522.101562 351.203125 520.894531 352.109375 519.03125 C 353.003906 517.195312 352.769531 515.121094 351.480469 513.472656 C 334.957031 492.324219 294.203125 450.398438 274.960938 431.1875 C 266.074219 422.316406 256.984375 413.328125 248.1875 404.644531 C 232.222656 388.875 215.714844 372.5625 199.789062 356.261719 C 187.625 343.816406 175.164062 328.945312 181.378906 309.976562 C 186.023438 295.8125 196.375 288.007812 210.527344 288.007812 C 221.058594 288.007812 232.585938 292.554688 242.152344 300.480469 C 260.164062 315.410156 276.546875 333.035156 292.390625 350.074219 C 298.277344 356.40625 304.363281 362.953125 310.449219 369.277344 C 314.160156 373.125 318.957031 378.269531 324.515625 384.21875 C 342.367188 403.335938 366.816406 429.515625 381.402344 441.066406 C 382.472656 441.90625 383.71875 442.355469 385.011719 442.355469 C 387.109375 442.355469 389.132812 441.140625 390.171875 439.246094 C 391.199219 437.378906 391.113281 435.160156 389.941406 433.3125 C 384.34375 424.488281 376.332031 415.828125 369.261719 408.183594 C 365.347656 403.949219 361.648438 399.949219 358.761719 396.367188 C 346.375 380.984375 333.050781 366.007812 320.164062 351.523438 C 308.730469 338.667969 296.910156 325.378906 285.789062 311.863281 C 281.011719 306.050781 274.144531 298.65625 266.191406 290.09375 C 247.351562 269.796875 223.902344 244.542969 217.046875 227.863281 C 211.167969 213.539062 215.34375 198.671875 227.691406 189.972656 C 233.925781 185.574219 240.589844 183.34375 247.492188 183.34375 C 255.097656 183.34375 262.804688 186.023438 270.402344 191.308594 C 282.453125 199.6875 291.816406 211.101562 300.871094 222.144531 C 303.828125 225.75 306.882812 229.480469 310 233.058594 C 342.171875 270.046875 406.453125 342.761719 430.957031 370.039062 C 431.867188 371.054688 433.085938 371.613281 434.386719 371.613281 C 436.074219 371.613281 437.703125 370.652344 438.539062 369.164062 C 439.347656 367.714844 439.296875 365.980469 438.398438 364.519531 C 426.691406 345.421875 398.609375 306.457031 357.183594 251.835938 C 355.355469 249.421875 353.449219 246.929688 351.5 244.382812 C 339.621094 228.84375 326.160156 211.226562 318.988281 197.648438 C 315.320312 190.394531 315.320312 182.558594 319.003906 174.394531 C 323.667969 164.050781 333.382812 156.390625 344.367188 154.402344 C 346.167969 154.082031 347.984375 153.910156 349.773438 153.910156 C 356.269531 153.910156 362.660156 156.050781 368.765625 160.277344 C 378.09375 166.726562 393.859375 186.859375 410.546875 208.171875 C 421.785156 222.519531 433.40625 237.359375 444.15625 249.460938 C 450.296875 256.378906 464.375 274.734375 479.285156 294.167969 C 498.636719 319.402344 520.578125 348.007812 530.3125 358.292969 C 538.21875 366.644531 546.890625 370.878906 556.097656 370.878906 C 559.851562 370.878906 563.742188 370.160156 567.652344 368.757812 C 581.113281 363.910156 588.425781 352.871094 588.242188 337.675781 C 587.882812 307.367188 596.34375 283.109375 614.117188 263.507812 C 623.820312 252.804688 647.769531 244.09375 667.503906 244.09375 C 674.929688 244.09375 681.140625 245.351562 685.46875 247.726562 C 699.691406 255.550781 703.949219 269.878906 696.566406 285.128906 C 694.390625 289.625 692.105469 294.167969 689.894531 298.5625 C 678.800781 320.597656 667.332031 343.390625 664.96875 369.9375 C 663.652344 384.757812 665.660156 399.046875 667.601562 412.867188 C 668.308594 417.902344 669.046875 423.105469 669.597656 428.234375 C 670.820312 439.578125 672.648438 451.0625 674.417969 462.179688 C 678.652344 488.800781 683.035156 516.328125 679.292969 543.445312 L 679.28125 543.546875 L 679.273438 543.640625 C 677.117188 588.8125 651.136719 623.390625 629.726562 644.441406 C 604.511719 669.238281 571.261719 689.230469 540.789062 697.914062 C 525.675781 702.183594 511.097656 704.34375 497.472656 704.34375 " fill-opacity="1" fill-rule="nonzero"/><g clip-path="url(#d3766cb264)"><path fill="#c08625" d="M 349.773438 151.742188 C 347.871094 151.742188 345.941406 151.910156 343.980469 152.269531 C 332.140625 154.410156 321.96875 162.539062 317.023438 173.503906 C 313.777344 180.707031 312.46875 189.558594 317.070312 198.660156 C 325.511719 214.640625 342.429688 235.972656 355.453125 253.148438 C 376.277344 280.609375 420.09375 338.816406 436.546875 365.652344 C 437.703125 367.539062 436.117188 369.445312 434.386719 369.445312 C 433.761719 369.445312 433.113281 369.191406 432.570312 368.585938 C 408.117188 341.367188 343.496094 268.265625 311.636719 231.632812 C 298.945312 217.042969 287.910156 200.832031 271.640625 189.523438 C 263.691406 183.996094 255.507812 181.175781 247.492188 181.175781 C 240.238281 181.175781 233.117188 183.488281 226.441406 188.195312 C 214.175781 196.839844 208.296875 212.273438 215.042969 228.6875 C 224.917969 252.730469 267.835938 293.449219 284.113281 313.238281 C 307.789062 342.03125 333.738281 368.75 357.070312 397.726562 C 365.261719 407.902344 379.554688 420.996094 388.105469 434.480469 C 389.835938 437.195312 387.609375 440.1875 385.011719 440.1875 C 384.261719 440.1875 383.476562 439.941406 382.753906 439.359375 C 363.8125 424.363281 327.71875 384.082031 312.015625 367.773438 C 289.527344 344.417969 268.371094 319.386719 243.539062 298.8125 C 233.53125 290.519531 221.5625 285.839844 210.527344 285.839844 C 196.882812 285.839844 184.664062 292.988281 179.320312 309.300781 C 172.75 329.332031 185.496094 344.742188 198.234375 357.777344 C 222.960938 383.085938 248.421875 407.753906 273.429688 432.722656 C 292.792969 452.058594 333.3125 493.742188 349.769531 514.804688 C 351.566406 517.105469 349.621094 519.933594 347.296875 519.933594 C 346.648438 519.933594 345.980469 519.71875 345.347656 519.214844 C 320.066406 499.09375 268.65625 448.761719 248.644531 435.472656 C 241.15625 430.496094 231.46875 428.046875 222.648438 428.046875 C 214.574219 428.046875 207.226562 430.101562 202.957031 434.148438 C 187.90625 448.433594 187.816406 457.953125 200.425781 480.050781 C 205.105469 488.253906 211 495.011719 217.578125 501.402344 C 261.714844 544.277344 308.492188 584.234375 354.527344 625.015625 C 378.722656 646.453125 402.304688 668.722656 429.640625 686.355469 C 451.378906 700.371094 474.027344 706.515625 497.472656 706.515625 C 511.820312 706.515625 526.46875 704.214844 541.382812 700.003906 C 598.128906 683.828125 677.59375 624.238281 681.445312 543.746094 C 686.796875 504.945312 675.917969 466.558594 671.753906 428.007812 C 669.691406 408.863281 665.359375 390.085938 667.132812 370.128906 C 669.921875 338.746094 685.457031 313.070312 698.519531 286.074219 C 706.347656 269.90625 701.820312 254.238281 686.515625 245.828125 C 681.601562 243.128906 674.921875 241.925781 667.503906 241.925781 C 647.859375 241.925781 623.078125 250.394531 612.511719 262.046875 C 592.804688 283.777344 585.730469 309.238281 586.070312 337.699219 C 586.238281 351.515625 579.8125 362.066406 566.917969 366.714844 C 563.175781 368.058594 559.570312 368.703125 556.097656 368.703125 C 547.160156 368.703125 539.101562 364.417969 531.890625 356.800781 C 514.769531 338.714844 459.984375 264.023438 445.773438 248.019531 C 418.855469 217.710938 385.9375 169.507812 370.003906 158.492188 C 363.886719 154.261719 357.074219 151.742188 349.773438 151.742188 Z M 349.773438 156.085938 C 355.820312 156.085938 361.796875 158.09375 367.535156 162.066406 C 376.589844 168.324219 392.257812 188.332031 408.84375 209.511719 C 420.097656 223.886719 431.734375 238.75 442.527344 250.902344 C 448.617188 257.761719 462.679688 276.089844 477.558594 295.492188 C 496.953125 320.765625 518.925781 349.417969 528.738281 359.78125 C 537.066406 368.582031 546.273438 373.046875 556.097656 373.046875 C 560.105469 373.046875 564.242188 372.292969 568.386719 370.796875 C 582.574219 365.6875 590.601562 353.605469 590.410156 337.648438 C 590.242188 323.105469 592.03125 310.367188 595.894531 298.714844 C 600.074219 286.117188 606.558594 275.078125 615.726562 264.964844 C 625.074219 254.65625 648.300781 246.265625 667.503906 246.265625 C 674.5625 246.265625 680.414062 247.429688 684.421875 249.632812 C 690.886719 253.183594 695.246094 258.246094 697.027344 264.269531 C 698.820312 270.332031 697.984375 277.21875 694.613281 284.179688 C 692.445312 288.664062 690.164062 293.199219 687.953125 297.582031 C 676.769531 319.804688 665.203125 342.785156 662.804688 369.746094 C 661.464844 384.8125 663.496094 399.230469 665.453125 413.167969 C 666.160156 418.183594 666.890625 423.375 667.4375 428.46875 C 668.664062 439.867188 670.503906 451.382812 672.273438 462.515625 C 676.488281 488.980469 680.839844 516.347656 677.140625 543.152344 L 677.117188 543.34375 L 677.105469 543.535156 C 674.980469 588.007812 649.339844 622.117188 628.207031 642.898438 C 603.234375 667.449219 570.332031 687.238281 540.203125 695.824219 C 525.277344 700.039062 510.902344 702.175781 497.472656 702.175781 C 473.730469 702.175781 452.308594 695.804688 431.996094 682.703125 C 408.972656 667.859375 388.191406 649.269531 368.089844 631.292969 C 364.59375 628.164062 360.976562 624.929688 357.402344 621.765625 C 347.261719 612.78125 336.914062 603.683594 326.910156 594.894531 C 291.527344 563.796875 254.941406 531.644531 220.597656 498.285156 C 213.199219 491.097656 208.140625 484.804688 204.195312 477.898438 C 197.945312 466.945312 195.390625 459.917969 195.65625 454.375 C 195.914062 448.9375 198.894531 443.992188 205.945312 437.296875 C 209.1875 434.222656 215.433594 432.390625 222.648438 432.390625 C 231.230469 432.390625 239.832031 434.832031 246.242188 439.089844 C 257.34375 446.457031 278.882812 465.996094 299.710938 484.890625 C 316.117188 499.777344 331.617188 513.835938 342.644531 522.609375 C 344.007812 523.699219 345.617188 524.277344 347.296875 524.277344 C 350.132812 524.277344 352.789062 522.589844 354.0625 519.980469 C 355.308594 517.425781 354.976562 514.417969 353.191406 512.136719 C 336.605469 490.90625 295.769531 448.894531 276.492188 429.648438 C 267.601562 420.769531 258.503906 411.78125 249.710938 403.09375 C 233.75 387.332031 217.253906 371.03125 201.339844 354.742188 C 189.085938 342.203125 177.609375 328.464844 183.445312 310.648438 C 187.769531 297.449219 197.390625 290.179688 210.527344 290.179688 C 220.5625 290.179688 231.585938 294.542969 240.769531 302.152344 C 258.667969 316.988281 275.003906 334.558594 290.796875 351.546875 C 296.691406 357.890625 302.785156 364.449219 308.886719 370.785156 C 312.582031 374.621094 317.378906 379.753906 322.929688 385.703125 C 340.832031 404.867188 365.34375 431.117188 380.054688 442.765625 C 381.511719 443.917969 383.226562 444.53125 385.011719 444.53125 C 387.929688 444.53125 390.636719 442.90625 392.074219 440.292969 C 393.488281 437.71875 393.375 434.675781 391.773438 432.152344 C 386.074219 423.164062 377.988281 414.421875 370.859375 406.714844 C 366.96875 402.507812 363.289062 398.53125 360.453125 395.003906 C 348.035156 379.582031 334.691406 364.582031 321.785156 350.078125 C 310.367188 337.238281 298.558594 323.964844 287.464844 310.484375 C 282.648438 304.621094 275.757812 297.203125 267.785156 288.617188 C 249.0625 268.449219 225.761719 243.359375 219.058594 227.035156 C 216.242188 220.179688 215.792969 213.183594 217.761719 206.804688 C 219.613281 200.800781 223.484375 195.59375 228.941406 191.746094 C 234.804688 187.613281 241.042969 185.519531 247.492188 185.519531 C 254.644531 185.519531 261.9375 188.066406 269.160156 193.085938 C 280.96875 201.292969 289.824219 212.089844 299.191406 223.523438 C 302.160156 227.136719 305.222656 230.878906 308.363281 234.488281 C 340.554688 271.496094 404.847656 344.222656 429.339844 371.492188 C 430.675781 372.972656 432.464844 373.785156 434.386719 373.785156 C 436.886719 373.785156 439.203125 372.417969 440.429688 370.222656 C 441.628906 368.082031 441.5625 365.523438 440.253906 363.378906 C 428.511719 344.230469 400.382812 305.207031 358.910156 250.523438 C 357.078125 248.113281 355.171875 245.617188 353.226562 243.0625 C 341.410156 227.601562 328.019531 210.085938 320.925781 196.664062 C 317.570312 190.003906 317.59375 182.8125 320.984375 175.289062 C 325.355469 165.582031 334.464844 158.398438 344.75 156.539062 C 346.421875 156.234375 348.113281 156.085938 349.773438 156.085938 " fill-opacity="1" fill-rule="nonzero"/></g><path fill="#53524e" d="M 432.917969 120.210938 C 469.203125 140.632812 498.578125 172.070312 516.976562 209.390625 C 522.070312 219.722656 526.164062 230.410156 529.410156 241.503906 C 531.972656 250.242188 545.667969 246.523438 543.09375 237.726562 C 530.71875 195.460938 505.277344 157.0625 471.125 129.234375 C 461.378906 121.289062 451.039062 114.132812 440.078125 107.964844 C 432.113281 103.480469 424.953125 115.730469 432.917969 120.210938 " fill-opacity="1" fill-rule="nonzero"/><path fill="#53524e" d="M 418.386719 162.027344 C 450.523438 180.894531 474.246094 212.429688 484.457031 248.191406 C 486.957031 256.953125 500.648438 253.230469 498.132812 244.421875 C 489.445312 213.984375 471.765625 185.964844 447.574219 165.472656 C 440.6875 159.636719 433.335938 154.347656 425.550781 149.78125 C 417.65625 145.148438 410.507812 157.402344 418.386719 162.027344 " fill-opacity="1" fill-rule="nonzero"/><path fill="#53524e" d="M 107.859375 503.148438 C 126.890625 542.757812 158.4375 576.253906 196.511719 598.136719 C 207.484375 604.445312 219.035156 609.726562 230.921875 614.058594 C 234.519531 615.371094 238.6875 612.585938 239.648438 609.105469 C 240.730469 605.15625 238.304688 601.699219 234.691406 600.378906 C 196.257812 586.378906 161.949219 560.070312 138.199219 526.679688 C 131.304688 516.984375 125.261719 506.707031 120.109375 495.988281 C 118.449219 492.535156 113.519531 491.621094 110.402344 493.441406 C 106.875 495.507812 106.191406 499.683594 107.859375 503.148438 " fill-opacity="1" fill-rule="nonzero"/><path fill="#53524e" d="M 150.527344 491.347656 C 164.652344 519.429688 187.746094 542.878906 215.136719 558.191406 C 223.242188 562.722656 231.765625 566.511719 240.503906 569.628906 C 244.113281 570.914062 248.265625 568.171875 249.226562 564.675781 C 250.308594 560.746094 247.898438 557.242188 244.277344 555.949219 C 209.25 543.457031 179.496094 517.417969 162.773438 484.1875 C 161.054688 480.769531 156.226562 479.800781 153.070312 481.644531 C 149.589844 483.683594 148.796875 487.917969 150.527344 491.347656 " fill-opacity="1" fill-rule="nonzero"/></svg>