<svg xmlns="http://www.w3.org/2000/svg" xmlns:xlink="http://www.w3.org/1999/xlink" width="1920" zoomAndPan="magnify" viewBox="0 0 1440 809.999993" height="1080" preserveAspectRatio="xMidYMid meet" version="1.0"><defs><clipPath id="b637bbaf14"><path d="M 100 0 L 876 0 L 876 491 L 100 491 Z M 100 0 " clip-rule="nonzero"/></clipPath><clipPath id="da45c3f713"><path d="M 892.363281 -401.386719 L 995.707031 425.429688 L 103.398438 536.953125 L 0.0585938 -289.863281 Z M 892.363281 -401.386719 " clip-rule="nonzero"/></clipPath><clipPath id="e7cb9ab620"><path d="M 892.363281 -401.386719 L 995.707031 425.429688 L 103.398438 536.953125 L 0.0585938 -289.863281 Z M 892.363281 -401.386719 " clip-rule="nonzero"/></clipPath><clipPath id="de508910e2"><path d="M 0 555 L 390 555 L 390 810 L 0 810 Z M 0 555 " clip-rule="nonzero"/></clipPath><clipPath id="a156f49d8f"><path d="M 433.640625 1110.808594 L -161.183594 1026.636719 L -87.9375 509.042969 L 506.882812 593.214844 Z M 433.640625 1110.808594 " clip-rule="nonzero"/></clipPath><clipPath id="7bf9ab6f0e"><path d="M 433.640625 1110.808594 L -161.183594 1026.636719 L -87.9375 509.042969 L 506.882812 593.214844 Z M 433.640625 1110.808594 " clip-rule="nonzero"/></clipPath></defs><rect x="-144" width="1728" fill="#ffffff" y="-80.999999" height="971.999992" fill-opacity="1"/><rect x="-144" width="1728" fill="#fff8e9" y="-80.999999" height="971.999992" fill-opacity="1"/><g clip-path="url(#b637bbaf14)"><g clip-path="url(#da45c3f713)"><g clip-path="url(#e7cb9ab620)"><path fill="#8ab7dd" d="M 180.109375 -49.308594 C 323.738281 -330.257812 755.476562 -116.1875 822.445312 -55.746094 C 949.894531 58.902344 824.671875 262.863281 690.382812 227.785156 C 592.882812 202.375 510.238281 157.488281 428.847656 346.910156 C 361.09375 504.414062 195.53125 519.902344 148.949219 453.390625 C 80.765625 356.34375 79.113281 148.433594 180.109375 -49.308594 Z M 180.109375 -49.308594 " fill-opacity="1" fill-rule="nonzero"/></g></g></g><path fill="#ffcc5f" d="M 1699.695312 159.699219 C 1861.917969 538.039062 2053.441406 192.402344 2155.746094 457.453125 C 2258.050781 722.5 2006.871094 918.210938 1681.121094 871.636719 C 1467.617188 841.023438 1085.351562 1318.527344 945.894531 932.078125 C 806.4375 545.625 1150.238281 515.273438 1197.074219 257.292969 C 1253.066406 -49.621094 1615.96875 -35.75 1699.695312 159.699219 Z M 1699.695312 159.699219 " fill-opacity="1" fill-rule="nonzero"/><g clip-path="url(#de508910e2)"><g clip-path="url(#a156f49d8f)"><g clip-path="url(#7bf9ab6f0e)"><path fill="#ffd2cc" d="M 15.371094 955.847656 C -53.824219 872.773438 -95.421875 565.058594 78.632812 555.753906 C 196.355469 549.414062 157.410156 646.933594 232.804688 785.160156 C 257.8125 830.914062 460.65625 917.160156 362.941406 1020.46875 C 305.015625 1081.671875 105.894531 1064.429688 15.371094 955.847656 Z M 15.371094 955.847656 " fill-opacity="1" fill-rule="nonzero"/></g></g></g></svg>