<svg xmlns="http://www.w3.org/2000/svg" xmlns:xlink="http://www.w3.org/1999/xlink" width="500" zoomAndPan="magnify" viewBox="0 0 375 374.999991" height="500" preserveAspectRatio="xMidYMid meet" version="1.0"><defs><g/></defs><g fill="#292929" fill-opacity="1"><g transform="translate(7.89531, 210.987432)"><g><path d="M 0.625 9.671875 L 17.746094 9.671875 L 17.746094 -19.554688 C 17.746094 -21.503906 19.34375 -23.101562 21.292969 -23.101562 C 23.242188 -23.101562 24.84375 -21.503906 24.84375 -19.554688 C 24.84375 -17.605469 23.242188 -16.003906 21.292969 -16.003906 L 18.71875 -16.003906 L 18.71875 1.113281 L 21.292969 1.113281 C 32.707031 1.113281 41.960938 -8.140625 41.960938 -19.554688 C 41.960938 -30.964844 32.707031 -40.222656 21.292969 -40.222656 C 9.882812 -40.222656 0.625 -30.964844 0.625 -19.554688 Z M 0.625 9.671875 "/></g></g></g><g fill="#292929" fill-opacity="1"><g transform="translate(50.481658, 210.987432)"><g><path d="M 25.46875 -39.039062 L 19.277344 -39.039062 C 8.351562 -39.039062 0.695312 -31.871094 0.695312 -20.945312 L 0.695312 0 L 17.816406 0 L 17.816406 -21.640625 C 17.816406 -22.269531 18.164062 -22.6875 18.859375 -22.6875 L 25.46875 -22.6875 Z M 25.46875 -39.039062 "/></g></g></g><g fill="#292929" fill-opacity="1"><g transform="translate(76.576232, 210.987432)"><g><path d="M 21.222656 1.113281 C 32.636719 1.113281 41.890625 -8.140625 41.890625 -19.554688 C 41.890625 -30.964844 32.636719 -40.222656 21.222656 -40.222656 C 9.8125 -40.222656 0.558594 -30.964844 0.558594 -19.554688 C 0.558594 -8.140625 9.8125 1.113281 21.222656 1.113281 Z M 21.222656 -23.101562 C 23.171875 -23.101562 24.773438 -21.503906 24.773438 -19.554688 C 24.773438 -17.605469 23.171875 -16.003906 21.222656 -16.003906 C 19.277344 -16.003906 17.675781 -17.605469 17.675781 -19.554688 C 17.675781 -21.503906 19.277344 -23.101562 21.222656 -23.101562 Z M 21.222656 -23.101562 "/></g></g></g><g fill="#292929" fill-opacity="1"><g transform="translate(118.88423, 210.987432)"><g><path d="M 30.6875 9.671875 L 50.660156 -39.039062 L 32.289062 -39.039062 L 26.234375 -21.292969 L 28.671875 -14.683594 L 27.625 -14.683594 L 18.648438 -39.039062 L 0.347656 -39.039062 L 16.769531 -0.140625 L 17.257812 -0.140625 L 13.429688 9.671875 Z M 30.6875 9.671875 "/></g></g></g><g fill="#292929" fill-opacity="1"><g transform="translate(169.890412, 210.987432)"><g><path d="M 22.824219 -17.605469 L 36.882812 -17.605469 C 41.058594 -20.457031 40.777344 -28.253906 38.621094 -32.082031 C 34.722656 -38.832031 27.417969 -40.222656 20.945312 -40.222656 C 8.421875 -40.011719 0.625 -31.105469 0.625 -20.109375 C 0.625 -9.046875 9.671875 0 20.738281 0 L 40.429688 0 L 40.429688 -16.699219 L 20.738281 -16.699219 C 15.796875 -16.699219 16.074219 -24.007812 20.875 -23.867188 C 25.191406 -23.800781 25.886719 -19.277344 22.824219 -17.605469 Z M 22.824219 -17.605469 "/></g></g></g><g fill="#292929" fill-opacity="1"><g transform="translate(210.945877, 210.987432)"><g><path d="M 21.292969 -40.152344 C 9.882812 -40.152344 0.625 -30.898438 0.625 -19.484375 C 0.625 -8.070312 9.882812 1.390625 21.292969 1.390625 C 32.496094 1.390625 41.683594 -7.792969 41.960938 -18.996094 L 24.773438 -18.996094 C 24.566406 -17.257812 23.101562 -15.9375 21.292969 -15.9375 C 19.34375 -15.9375 17.746094 -17.535156 17.746094 -19.484375 C 17.746094 -21.433594 19.34375 -23.035156 21.292969 -23.035156 C 23.101562 -23.035156 24.566406 -21.710938 24.773438 -19.972656 L 41.960938 -19.972656 C 41.683594 -31.175781 32.496094 -40.152344 21.292969 -40.152344 Z M 21.292969 -40.152344 "/></g></g></g><g fill="#292929" fill-opacity="1"><g transform="translate(253.532225, 210.987432)"><g><path d="M 18.929688 0 L 29.644531 0 L 29.644531 -16.214844 L 18.648438 -16.214844 C 18.164062 -16.214844 17.746094 -16.632812 17.746094 -17.117188 L 17.746094 -22.894531 L 29.644531 -22.894531 L 29.644531 -39.039062 L 17.746094 -39.039062 L 17.746094 -48.78125 L 0.625 -48.78125 L 0.625 -17.882812 C 0.625 -5.914062 8.140625 0 18.929688 0 Z M 18.929688 0 "/></g></g></g><g fill="#292929" fill-opacity="1"><g transform="translate(283.941098, 210.987432)"><g><path d="M 21.222656 1.113281 C 32.636719 1.113281 41.890625 -8.140625 41.890625 -19.554688 C 41.890625 -30.964844 32.636719 -40.222656 21.222656 -40.222656 C 9.8125 -40.222656 0.558594 -30.964844 0.558594 -19.554688 C 0.558594 -8.140625 9.8125 1.113281 21.222656 1.113281 Z M 21.222656 -23.101562 C 23.171875 -23.101562 24.773438 -21.503906 24.773438 -19.554688 C 24.773438 -17.605469 23.171875 -16.003906 21.222656 -16.003906 C 19.277344 -16.003906 17.675781 -17.605469 17.675781 -19.554688 C 17.675781 -21.503906 19.277344 -23.101562 21.222656 -23.101562 Z M 21.222656 -23.101562 "/></g></g></g><g fill="#292929" fill-opacity="1"><g transform="translate(326.249096, 210.987432)"><g><path d="M 0.625 0 L 20.527344 0 C 28.460938 0 35.140625 -0.972656 38.621094 -7.585938 C 40.640625 -11.550781 40.710938 -17.535156 36.1875 -22.40625 L 22.269531 -22.40625 C 25.398438 -20.808594 24.703125 -15.585938 20.527344 -15.585938 C 18.164062 -15.585938 16.839844 -17.257812 16.492188 -18.929688 C 16.074219 -21.085938 17.675781 -23.382812 20.390625 -23.382812 L 40.222656 -23.382812 L 40.222656 -39.109375 L 20.390625 -39.109375 C 12.457031 -39.109375 5.84375 -37.925781 2.4375 -31.246094 C 0.417969 -27.347656 0.347656 -21.851562 3.617188 -17.1875 L 8.351562 -17.1875 C 8.558594 -16.910156 8.769531 -16.5625 8.976562 -16.214844 L 0.625 -16.214844 Z M 0.625 0 "/></g></g></g></svg>