<svg id="visual" viewBox="0 0 540 960" width="540" height="960" xmlns="http://www.w3.org/2000/svg" xmlns:xlink="http://www.w3.org/1999/xlink" version="1.1"><rect x="0" y="0" width="540" height="960" fill="#ECC194"></rect><g fill="#A5582C"><circle r="62" cx="415" cy="478"></circle><circle r="16" cx="417" cy="257"></circle><circle r="37" cx="305" cy="937"></circle><circle r="18" cx="5" cy="860"></circle><circle r="43" cx="521" cy="551"></circle><circle r="56" cx="526" cy="47"></circle><circle r="41" cx="107" cy="494"></circle><circle r="56" cx="300" cy="731"></circle><circle r="58" cx="199" cy="812"></circle><circle r="38" cx="486" cy="897"></circle><circle r="47" cx="213" cy="93"></circle><circle r="15" cx="175" cy="681"></circle><circle r="53" cx="72" cy="70"></circle><circle r="29" cx="520" cy="722"></circle><circle r="15" cx="231" cy="435"></circle><circle r="33" cx="69" cy="299"></circle><circle r="47" cx="177" cy="218"></circle><circle r="23" cx="490" cy="368"></circle><circle r="24" cx="41" cy="610"></circle></g></svg>