<svg xmlns="http://www.w3.org/2000/svg" xmlns:xlink="http://www.w3.org/1999/xlink" width="500" zoomAndPan="magnify" viewBox="0 0 375 374.999991" height="500" preserveAspectRatio="xMidYMid meet" version="1.0"><defs><g/></defs><g fill="#000000" fill-opacity="1"><g transform="translate(54.769351, 231.378757)"><g><path d="M 30.5625 -23.414062 C 30.5625 -26.226562 31.09375 -27.898438 33.679688 -29.953125 C 34.515625 -30.5625 34.210938 -31.472656 33.449219 -31.472656 C 26.152344 -31.472656 23.414062 -37.097656 15.203125 -37.097656 L 15.050781 -37.097656 C 6.691406 -37.023438 0 -30.789062 0 -23.035156 C 0 -15.28125 6.765625 -8.96875 15.203125 -8.96875 C 17.027344 -8.96875 18.851562 -9.351562 20.449219 -9.882812 C 20.222656 -3.648438 19.234375 1.445312 17.257812 3.34375 C 16.574219 4.105469 16.421875 5.246094 18.09375 5.246094 L 33.449219 5.246094 C 34.210938 5.246094 34.515625 4.257812 33.679688 3.648438 C 31.09375 1.671875 30.5625 0 30.5625 -2.8125 Z M 15.203125 -11.097656 C 12.773438 -11.097656 10.796875 -16.496094 10.796875 -23.035156 C 10.796875 -29.648438 12.773438 -34.96875 15.203125 -34.96875 C 17.5625 -34.96875 19.539062 -29.648438 19.539062 -23.035156 C 19.539062 -16.496094 17.5625 -11.097656 15.203125 -11.097656 Z M 15.203125 -11.097656 "/></g></g></g><g fill="#000000" fill-opacity="1"><g transform="translate(90.572738, 231.378757)"><g><path d="M 33.980469 -35.121094 C 34.132812 -36.109375 34.816406 -37.328125 33.222656 -37.023438 C 30.410156 -36.414062 27.292969 -31.472656 19.992188 -31.472656 C 19.234375 -31.472656 18.929688 -30.5625 19.691406 -29.953125 C 22.351562 -27.898438 22.804688 -26.226562 22.804688 -23.414062 L 22.804688 -17.027344 C 21.816406 -14.75 20.375 -12.46875 18.777344 -12.46875 C 13.074219 -12.46875 12.773438 -26.074219 14.671875 -35.121094 C 14.898438 -36.109375 15.585938 -37.328125 13.988281 -37.023438 C 11.097656 -36.414062 8.058594 -31.472656 0.761719 -31.472656 C 0 -31.472656 -0.304688 -30.5625 0.457031 -29.953125 C 3.117188 -27.898438 3.574219 -26.226562 3.574219 -23.414062 C 3.574219 -12.164062 8.820312 -8.96875 15.660156 -8.96875 C 19.082031 -8.96875 21.4375 -10.945312 23.109375 -13.378906 C 23.871094 -11.175781 26 -8.96875 29.34375 -8.96875 L 36.339844 -8.96875 C 37.097656 -8.96875 37.25 -9.808594 36.566406 -10.566406 C 31.851562 -16.191406 32.992188 -29.039062 33.980469 -35.121094 Z M 33.980469 -35.121094 "/></g></g></g><g fill="#000000" fill-opacity="1"><g transform="translate(128.656602, 231.378757)"><g><path d="M 27.0625 -17.714844 C 24.933594 -14.898438 20.296875 -13.910156 17.484375 -14.671875 C 14.445312 -15.585938 12.773438 -17.714844 12.011719 -20.222656 C 13.609375 -19.539062 15.355469 -19.082031 17.332031 -19.082031 C 23.261719 -19.082031 28.128906 -23.109375 28.128906 -28.050781 C 28.128906 -33.070312 21.742188 -37.097656 15.8125 -37.097656 C 6.691406 -37.097656 0 -30.789062 0 -23.035156 C 0 -15.28125 6.765625 -8.96875 15.203125 -8.96875 C 21.058594 -8.96875 26.152344 -12.085938 28.660156 -16.574219 C 29.117188 -17.410156 27.824219 -18.703125 27.0625 -17.714844 Z M 15.433594 -34.96875 C 17.484375 -34.96875 18.929688 -31.851562 18.929688 -28.050781 C 18.929688 -24.328125 17.484375 -21.210938 15.433594 -21.210938 C 13.609375 -21.210938 11.707031 -23.71875 11.707031 -27.746094 C 11.707031 -32.613281 14.214844 -34.96875 15.433594 -34.96875 Z M 15.433594 -34.96875 "/></g></g></g><g fill="#000000" fill-opacity="1"><g transform="translate(158.986859, 231.378757)"><g><path d="M 32.308594 -37.097656 L 23.566406 -37.097656 C 22.503906 -37.097656 22.199219 -36.1875 22.804688 -35.503906 C 25.695312 -32.003906 21.285156 -14.671875 21.285156 -14.671875 C 20.90625 -15.355469 13.910156 -30.789062 18.167969 -35.503906 C 18.777344 -36.1875 18.246094 -37.097656 17.410156 -37.097656 L 1.0625 -37.097656 C -0.53125 -37.097656 -0.152344 -35.804688 0.835938 -35.199219 C 3.039062 -33.90625 4.867188 -31.246094 7.679688 -22.121094 L 10.796875 -11.933594 C 11.402344 -9.882812 12.316406 -8.96875 14.671875 -8.96875 L 19.691406 -8.96875 C 21.363281 -8.96875 22.046875 -10.261719 22.503906 -11.785156 L 27.824219 -29.039062 C 28.660156 -31.851562 29.421875 -33.980469 32.082031 -35.503906 C 33.070312 -36.109375 33.222656 -37.097656 32.308594 -37.097656 Z M 32.308594 -37.097656 "/></g></g></g><g fill="#000000" fill-opacity="1"><g transform="translate(193.42196, 231.378757)"><g><path d="M 27.0625 -17.714844 C 24.933594 -14.898438 20.296875 -13.910156 17.484375 -14.671875 C 14.445312 -15.585938 12.773438 -17.714844 12.011719 -20.222656 C 13.609375 -19.539062 15.355469 -19.082031 17.332031 -19.082031 C 23.261719 -19.082031 28.128906 -23.109375 28.128906 -28.050781 C 28.128906 -33.070312 21.742188 -37.097656 15.8125 -37.097656 C 6.691406 -37.097656 0 -30.789062 0 -23.035156 C 0 -15.28125 6.765625 -8.96875 15.203125 -8.96875 C 21.058594 -8.96875 26.152344 -12.085938 28.660156 -16.574219 C 29.117188 -17.410156 27.824219 -18.703125 27.0625 -17.714844 Z M 15.433594 -34.96875 C 17.484375 -34.96875 18.929688 -31.851562 18.929688 -28.050781 C 18.929688 -24.328125 17.484375 -21.210938 15.433594 -21.210938 C 13.609375 -21.210938 11.707031 -23.71875 11.707031 -27.746094 C 11.707031 -32.613281 14.214844 -34.96875 15.433594 -34.96875 Z M 15.433594 -34.96875 "/></g></g></g><g fill="#000000" fill-opacity="1"><g transform="translate(223.752216, 231.378757)"><g><path d="M 33.679688 -10.566406 C 31.09375 -12.542969 30.5625 -14.214844 30.5625 -17.027344 L 30.5625 -32.613281 C 30.5625 -37.632812 30.941406 -40.140625 32.003906 -45.765625 C 32.15625 -46.753906 32.839844 -48.046875 31.246094 -47.664062 C 28.355469 -47.132812 25.011719 -42.117188 17.714844 -42.117188 C 16.953125 -42.117188 16.648438 -41.203125 17.484375 -40.597656 C 18.550781 -39.757812 19.308594 -38.316406 19.765625 -36.414062 C 18.320312 -36.871094 16.800781 -37.097656 15.203125 -37.097656 C 6.765625 -37.097656 0 -30.789062 0 -23.035156 C 0 -15.28125 6.765625 -8.96875 15.203125 -8.96875 L 33.449219 -8.96875 C 34.210938 -8.96875 34.515625 -9.957031 33.679688 -10.566406 Z M 10.796875 -23.035156 C 10.796875 -29.648438 12.773438 -34.96875 15.203125 -34.96875 C 17.5625 -34.96875 19.539062 -29.648438 19.539062 -23.035156 C 19.539062 -16.496094 17.5625 -11.097656 15.203125 -11.097656 C 12.773438 -11.097656 10.796875 -16.496094 10.796875 -23.035156 Z M 10.796875 -23.035156 "/></g></g></g><g fill="#000000" fill-opacity="1"><g transform="translate(259.859667, 231.378757)"><g><path d="M 15.203125 -37.097656 C 6.765625 -37.097656 0 -30.789062 0 -23.035156 C 0 -15.28125 6.765625 -8.96875 15.203125 -8.96875 C 23.566406 -8.96875 30.332031 -15.28125 30.332031 -23.035156 C 30.332031 -30.789062 23.566406 -37.097656 15.203125 -37.097656 Z M 15.203125 -11.097656 C 12.773438 -11.097656 10.796875 -16.496094 10.796875 -23.035156 C 10.796875 -29.648438 12.773438 -34.96875 15.203125 -34.96875 C 17.5625 -34.96875 19.539062 -29.648438 19.539062 -23.035156 C 19.539062 -16.496094 17.5625 -11.097656 15.203125 -11.097656 Z M 15.203125 -11.097656 "/></g></g></g><g fill="#ff3131" fill-opacity="1"><g transform="translate(57.904541, 180.460755)"><g><path d="M 5.101562 7.433594 C 5.320312 7.433594 5.609375 7.285156 5.902344 6.996094 C 6.484375 6.121094 6.484375 5.171875 6.191406 4.007812 L 6.847656 -0.730469 C 6.921875 -1.164062 7.140625 -1.382812 7.433594 -1.382812 C 7.722656 -1.382812 9.253906 -0.582031 9.546875 -0.363281 C 11.949219 0.945312 16.539062 2.695312 19.308594 2.695312 C 24.335938 2.695312 30.820312 -1.820312 34.316406 -5.320312 C 35.703125 -6.628906 37.085938 -7.941406 38.472656 -9.328125 C 39.78125 -10.636719 41.167969 -11.949219 42.550781 -13.261719 C 42.914062 -13.625 43.207031 -13.917969 43.351562 -14.136719 C 44.082031 -14.9375 44.226562 -15.519531 43.789062 -16.03125 C 43.644531 -16.175781 43.5 -16.25 43.351562 -16.25 C 42.988281 -16.25 42.550781 -15.957031 42.042969 -15.445312 L 33.515625 -7.140625 C 29.875 -3.863281 24.335938 0.800781 19.308594 0.800781 C 16.757812 0.800781 9.253906 -1.894531 7.503906 -4.007812 C 7.578125 -4.664062 7.578125 -5.246094 7.652344 -5.902344 C 7.722656 -6.484375 7.722656 -7.066406 7.796875 -7.722656 C 7.941406 -8.816406 8.453125 -9.617188 9.398438 -10.273438 C 15.15625 -14.0625 20.984375 -18.578125 26.011719 -23.824219 C 31.039062 -29 35.410156 -34.828125 38.253906 -41.238281 C 38.617188 -42.113281 38.980469 -43.0625 39.054688 -44.007812 C 39.054688 -44.519531 38.835938 -44.808594 38.398438 -44.882812 C 38.324219 -44.882812 38.324219 -44.882812 38.324219 -44.957031 C 38.253906 -44.957031 38.253906 -44.957031 38.179688 -44.957031 C 37.960938 -44.957031 37.742188 -44.738281 37.523438 -44.375 C 35.628906 -36.941406 26.15625 -26.011719 20.472656 -21.128906 C 17.339844 -18.289062 13.988281 -15.882812 10.566406 -13.332031 C 10.347656 -13.261719 10.128906 -13.117188 9.980469 -12.96875 C 9.761719 -12.824219 9.546875 -12.679688 9.328125 -12.605469 C 9.253906 -12.53125 9.179688 -12.53125 9.109375 -12.53125 C 8.816406 -12.53125 8.671875 -12.679688 8.671875 -12.96875 C 8.671875 -13.1875 8.671875 -13.480469 8.671875 -13.699219 C 8.671875 -13.917969 8.671875 -14.136719 8.742188 -14.355469 C 9.980469 -22.441406 11.585938 -29.945312 13.917969 -37.816406 C 13.988281 -38.179688 14.136719 -38.472656 14.207031 -38.761719 C 14.28125 -39.054688 14.355469 -39.347656 14.425781 -39.636719 C 14.5 -40.148438 14.355469 -40.4375 13.988281 -40.65625 C 13.917969 -40.65625 13.917969 -40.65625 13.84375 -40.730469 C 13.769531 -40.730469 13.769531 -40.730469 13.699219 -40.730469 C 13.261719 -40.730469 12.96875 -40.511719 12.824219 -40.148438 C 12.605469 -39.636719 12.3125 -39.054688 12.09375 -38.324219 C 9.546875 -29.800781 7.652344 -21.128906 6.558594 -12.3125 C 6.339844 -10.855469 5.757812 -9.980469 4.589844 -9.328125 C 3.863281 -8.960938 1.3125 -7.503906 0.582031 -6.777344 C -0.292969 -5.976562 -0.292969 -5.246094 0.800781 -4.734375 C 1.019531 -4.664062 1.164062 -4.589844 1.382812 -4.515625 C 1.53125 -4.445312 1.675781 -4.371094 1.894531 -4.300781 C 2.550781 -4.082031 3.277344 -3.863281 3.863281 -3.570312 C 5.101562 -2.988281 5.246094 -2.914062 5.027344 -1.53125 C 4.953125 -0.4375 4.808594 0.730469 4.664062 1.820312 C 4.515625 2.914062 4.371094 4.007812 4.226562 5.101562 C 4.152344 5.609375 4.007812 6.191406 4.226562 6.703125 C 4.371094 7.214844 4.664062 7.433594 5.101562 7.433594 Z M 5.101562 -5.320312 C 4.808594 -5.320312 4.589844 -5.390625 4.445312 -5.464844 C 4.226562 -5.539062 4.082031 -5.609375 3.933594 -5.683594 C 3.714844 -5.757812 3.570312 -5.902344 3.351562 -5.976562 C 3.714844 -6.847656 4.664062 -7.214844 5.539062 -7.503906 C 6.046875 -6.996094 5.828125 -6.628906 5.757812 -6.121094 C 5.683594 -5.609375 5.464844 -5.320312 5.101562 -5.320312 Z M 5.101562 -5.320312 "/></g></g></g><g fill="#ff3131" fill-opacity="1"><g transform="translate(98.266442, 180.460755)"><g><path d="M 3.425781 -3.058594 C 8.453125 -3.058594 16.101562 -10.492188 19.601562 -14.207031 C 19.890625 -14.5 20.109375 -14.71875 20.183594 -14.9375 C 20.402344 -15.300781 20.328125 -15.664062 19.964844 -16.03125 C 19.820312 -16.175781 19.671875 -16.25 19.453125 -16.25 C 19.308594 -16.25 19.089844 -16.175781 18.871094 -16.03125 C 18.652344 -15.8125 18.433594 -15.59375 18.214844 -15.375 C 17.996094 -15.15625 17.707031 -14.9375 17.488281 -14.71875 C 16.613281 -13.917969 15.738281 -13.117188 14.9375 -12.3125 C 14.0625 -11.511719 13.1875 -10.636719 12.3125 -9.835938 C 10.199219 -7.871094 6.847656 -5.539062 3.933594 -4.953125 C 2.550781 -4.953125 1.75 -4.953125 1.457031 -6.628906 C 1.09375 -7.578125 1.019531 -8.378906 1.238281 -9.179688 C 1.3125 -9.546875 1.53125 -9.761719 1.820312 -9.835938 C 5.320312 -10.199219 9.910156 -14.5 10.492188 -18.070312 C 10.710938 -19.746094 9.761719 -20.765625 8.304688 -20.765625 C 8.234375 -20.765625 8.085938 -20.765625 8.015625 -20.765625 C 7.941406 -20.691406 7.796875 -20.691406 7.722656 -20.691406 C 3.863281 -20.109375 1.019531 -15.007812 -0.21875 -11.585938 C -0.511719 -10.492188 -0.800781 -9.472656 -0.730469 -8.234375 C -0.800781 -7.433594 -0.582031 -6.558594 -0.292969 -5.757812 C 0.21875 -3.933594 1.457031 -3.058594 3.425781 -3.058594 Z M 2.769531 -12.023438 C 2.695312 -11.949219 2.550781 -12.023438 2.332031 -12.09375 C 2.257812 -12.09375 2.1875 -12.242188 2.1875 -12.460938 C 2.988281 -14.71875 5.464844 -18.363281 7.871094 -18.726562 C 8.234375 -18.796875 8.453125 -18.652344 8.523438 -18.144531 C 8.523438 -15.8125 4.664062 -13.042969 2.769531 -12.023438 Z M 2.769531 -12.023438 "/></g></g></g><g fill="#ff3131" fill-opacity="1"><g transform="translate(114.877472, 180.460755)"><g><path d="M 2.113281 0.4375 C 5.101562 0.4375 9.253906 -7.285156 10.128906 -9.980469 L 10.785156 -11.804688 C 11.003906 -12.53125 11.511719 -12.96875 12.3125 -13.117188 C 12.53125 -13.1875 12.824219 -13.1875 13.117188 -13.261719 C 13.40625 -13.332031 13.699219 -13.332031 13.917969 -13.40625 L 19.746094 -14.644531 C 20.109375 -14.644531 20.402344 -14.71875 20.621094 -14.863281 C 20.910156 -15.007812 21.058594 -15.300781 21.058594 -15.664062 C 21.058594 -15.957031 20.910156 -16.25 20.546875 -16.46875 C 20.328125 -16.539062 20.183594 -16.613281 20.039062 -16.613281 C 19.820312 -16.613281 19.527344 -16.539062 19.164062 -16.46875 C 17.195312 -15.957031 15.300781 -15.519531 13.332031 -15.300781 C 10.785156 -15.007812 9.253906 -13.988281 8.597656 -11.4375 C 8.085938 -9.109375 5.464844 -4.515625 3.714844 -2.769531 C 3.570312 -2.550781 3.425781 -2.40625 3.351562 -2.257812 C 3.207031 -2.039062 2.988281 -1.96875 2.769531 -1.96875 C 2.625 -1.96875 2.476562 -1.96875 2.40625 -2.039062 C 1.894531 -2.257812 1.96875 -2.769531 1.96875 -3.277344 C 1.96875 -8.015625 3.132812 -13.332031 4.953125 -17.707031 C 5.171875 -18.214844 5.320312 -18.578125 5.246094 -19.089844 C 5.171875 -19.308594 5.027344 -19.527344 4.808594 -19.601562 C 4.734375 -19.671875 4.589844 -19.746094 4.371094 -19.746094 C 4.152344 -19.746094 4.007812 -19.671875 3.933594 -19.601562 C 3.714844 -19.382812 3.496094 -19.164062 3.425781 -18.871094 C 1.382812 -14.136719 0.511719 -9.179688 0 -3.933594 C 0.0742188 -3.570312 0.0742188 -3.132812 0.144531 -2.769531 C 0.144531 -2.332031 0.21875 -1.894531 0.292969 -1.457031 C 0.582031 -0.21875 1.164062 0.4375 2.113281 0.4375 Z M 2.113281 0.4375 "/></g></g></g><g fill="#ff3131" fill-opacity="1"><g transform="translate(132.28992, 180.460755)"><g><path d="M 3.132812 -2.625 C 5.101562 -2.625 7.066406 -4.152344 8.453125 -5.390625 C 11.65625 -8.085938 14.207031 -11.292969 16.757812 -14.574219 C 16.976562 -14.792969 17.121094 -15.007812 17.195312 -15.375 C 17.269531 -15.738281 17.195312 -16.03125 16.902344 -16.25 C 16.757812 -16.394531 16.613281 -16.46875 16.394531 -16.46875 C 16.25 -16.46875 16.101562 -16.394531 16.03125 -16.320312 C 15.664062 -16.03125 15.300781 -15.738281 15.007812 -15.375 C 14.425781 -14.71875 13.84375 -13.988281 13.332031 -13.332031 C 12.824219 -12.679688 12.242188 -11.949219 11.65625 -11.292969 C 9.980469 -9.328125 8.234375 -7.652344 6.265625 -5.976562 C 5.390625 -5.320312 4.589844 -4.808594 3.496094 -4.589844 C 2.695312 -4.589844 2.257812 -4.664062 2.039062 -5.464844 C 1.894531 -6.121094 1.820312 -6.777344 1.894531 -7.359375 C 2.332031 -10.785156 3.425781 -14.425781 4.664062 -17.632812 C 4.734375 -17.996094 4.664062 -18.289062 4.300781 -18.433594 C 4.082031 -18.507812 3.933594 -18.578125 3.789062 -18.578125 C 3.644531 -18.578125 3.425781 -18.507812 3.207031 -18.363281 C 1.3125 -16.46875 0.511719 -10.566406 0 -7.359375 C 0 -6.265625 0 -5.539062 0.292969 -4.734375 C 0.800781 -3.351562 1.75 -2.625 3.132812 -2.625 Z M 5.027344 -21.203125 C 5.828125 -21.203125 6.558594 -21.929688 6.558594 -22.734375 C 6.484375 -23.535156 5.976562 -23.898438 5.101562 -23.898438 C 4.226562 -23.898438 3.789062 -23.460938 3.789062 -22.585938 C 3.863281 -21.714844 4.371094 -21.128906 5.027344 -21.203125 Z M 5.027344 -21.203125 "/></g></g></g><g fill="#ff3131" fill-opacity="1"><g transform="translate(145.841028, 180.460755)"><g><path d="M -0.363281 -0.730469 C -0.0742188 -0.730469 0.144531 -0.800781 0.363281 -0.945312 C 0.800781 -1.3125 1.164062 -1.675781 1.382812 -2.1875 C 1.601562 -2.625 1.820312 -3.058594 2.039062 -3.496094 C 4.300781 -8.085938 7.066406 -12.460938 10.855469 -15.882812 C 11.003906 -16.03125 11.148438 -16.101562 11.367188 -16.101562 C 11.585938 -16.101562 11.804688 -15.882812 11.875 -15.519531 C 11.949219 -14.792969 12.09375 -14.0625 12.167969 -13.40625 C 12.242188 -12.679688 12.3125 -11.949219 12.386719 -11.222656 C 12.460938 -10.347656 12.679688 -9.472656 13.1875 -8.523438 C 13.769531 -7.503906 14.574219 -6.996094 15.519531 -6.996094 C 15.59375 -6.996094 15.738281 -6.996094 15.882812 -7.066406 C 15.957031 -7.066406 16.101562 -7.066406 16.175781 -7.066406 C 17.269531 -7.285156 18.214844 -7.796875 19.089844 -8.597656 C 19.890625 -9.328125 24.191406 -13.1875 24.992188 -13.988281 C 25.285156 -14.28125 25.5 -14.644531 25.648438 -15.007812 C 25.792969 -15.375 25.71875 -15.738281 25.355469 -16.03125 C 25.210938 -16.175781 25.066406 -16.25 24.847656 -16.25 C 24.628906 -16.25 24.480469 -16.175781 24.335938 -16.03125 C 24.191406 -15.957031 24.042969 -15.738281 23.824219 -15.519531 C 23.609375 -15.300781 23.097656 -14.792969 22.296875 -14.136719 C 21.640625 -13.550781 20.984375 -12.96875 20.402344 -12.386719 C 19.746094 -11.730469 19.164062 -11.148438 18.507812 -10.566406 C 17.707031 -9.910156 16.976562 -9.328125 16.101562 -9.035156 C 16.03125 -9.035156 15.957031 -9.035156 15.957031 -9.035156 C 15.882812 -8.960938 15.8125 -8.960938 15.738281 -8.960938 C 15.300781 -8.960938 15.007812 -9.179688 14.863281 -9.546875 C 14.5 -10.199219 14.28125 -10.929688 14.207031 -11.804688 C 14.136719 -12.386719 14.0625 -12.96875 14.0625 -13.550781 C 13.988281 -14.136719 13.917969 -14.71875 13.84375 -15.375 C 13.625 -16.613281 13.40625 -18.363281 11.730469 -18.363281 C 8.890625 -18.363281 3.277344 -9.980469 2.039062 -7.503906 C 1.820312 -8.015625 1.75 -8.453125 1.96875 -8.890625 C 2.113281 -9.328125 2.257812 -9.761719 2.40625 -10.199219 C 3.132812 -12.023438 3.863281 -13.917969 4.589844 -15.8125 C 5.246094 -17.632812 5.976562 -19.527344 6.703125 -21.347656 L 7.140625 -22.222656 C 7.359375 -22.734375 7.285156 -23.171875 6.777344 -23.460938 C 6.558594 -23.535156 6.410156 -23.609375 6.339844 -23.609375 C 5.539062 -23.609375 4.882812 -21.640625 4.445312 -20.984375 C 3.789062 -19.164062 3.058594 -17.339844 2.40625 -15.519531 C 1.75 -13.699219 1.019531 -11.875 0.363281 -10.054688 C -0.4375 -7.652344 -1.164062 -5.246094 -1.457031 -2.695312 C -1.457031 -2.257812 -1.457031 -1.96875 -1.382812 -1.75 C -1.3125 -1.09375 -0.945312 -0.730469 -0.363281 -0.730469 Z M -0.363281 -0.730469 "/></g></g></g><g fill="#ffffff" fill-opacity="1"><g transform="translate(251.60614, 179.239253)"><g><path d="M -3.03125 -5.484375 L -0.734375 -7.140625 C -0.179688 -7.535156 0.378906 -7.78125 0.953125 -7.875 C 1.535156 -7.96875 2.078125 -7.90625 2.578125 -7.6875 C 3.078125 -7.476562 3.507812 -7.117188 3.875 -6.609375 C 4.238281 -6.097656 4.441406 -5.570312 4.484375 -5.03125 C 4.523438 -4.488281 4.40625 -3.957031 4.125 -3.4375 C 3.851562 -2.925781 3.441406 -2.472656 2.890625 -2.078125 L 0.59375 -0.421875 Z M 2.15625 -3 C 2.65625 -3.363281 2.953125 -3.789062 3.046875 -4.28125 C 3.148438 -4.769531 3.03125 -5.257812 2.6875 -5.75 C 2.34375 -6.226562 1.914062 -6.503906 1.40625 -6.578125 C 0.90625 -6.648438 0.40625 -6.503906 -0.09375 -6.140625 L -1.171875 -5.375 L 1.078125 -2.234375 Z M 2.15625 -3 "/></g></g></g><g fill="#ffffff" fill-opacity="1"><g transform="translate(259.845045, 173.930535)"><g><path d="M 4.921875 -2.828125 L 5.28125 -1.734375 L 0.703125 -0.234375 L -1.234375 -6.140625 L 3.234375 -7.59375 L 3.59375 -6.5 L 0.484375 -5.484375 L 0.90625 -4.203125 L 3.65625 -5.109375 L 4 -4.046875 L 1.25 -3.140625 L 1.703125 -1.765625 Z M 4.921875 -2.828125 "/></g></g></g><g fill="#ffffff" fill-opacity="1"><g transform="translate(267.978651, 171.598859)"><g><path d="M 6.578125 -6.375 L 4.03125 -0.09375 L 2.609375 -0.0625 L -0.21875 -6.21875 L 1.328125 -6.25 L 3.328125 -1.859375 L 5.15625 -6.34375 Z M 6.578125 -6.375 "/></g></g></g><g fill="#ffffff" fill-opacity="1"><g transform="translate(277.091707, 171.807444)"><g><path d="M 5.671875 0.375 L 5.359375 1.484375 L 0.703125 0.203125 L 2.375 -5.78125 L 6.90625 -4.53125 L 6.59375 -3.421875 L 3.453125 -4.296875 L 3.09375 -3 L 5.875 -2.21875 L 5.5625 -1.140625 L 2.78125 -1.921875 L 2.40625 -0.53125 Z M 5.671875 0.375 "/></g></g></g><g fill="#ffffff" fill-opacity="1"><g transform="translate(285.155958, 174.448667)"><g><path d="M 3.84375 -4.9375 L 5.078125 -4.1875 L 2.46875 0.125 L 5.140625 1.75 L 4.53125 2.75 L 0.625 0.375 Z M 3.84375 -4.9375 "/></g></g></g><g fill="#ffffff" fill-opacity="1"><g transform="translate(291.77307, 178.7099)"><g><path d="M 2.421875 2.875 C 1.984375 2.394531 1.695312 1.867188 1.5625 1.296875 C 1.4375 0.722656 1.457031 0.160156 1.625 -0.390625 C 1.789062 -0.941406 2.101562 -1.414062 2.5625 -1.8125 C 3.019531 -2.226562 3.53125 -2.484375 4.09375 -2.578125 C 4.65625 -2.679688 5.207031 -2.628906 5.75 -2.421875 C 6.289062 -2.222656 6.78125 -1.882812 7.21875 -1.40625 C 7.644531 -0.925781 7.925781 -0.40625 8.0625 0.15625 C 8.207031 0.726562 8.195312 1.285156 8.03125 1.828125 C 7.863281 2.378906 7.550781 2.863281 7.09375 3.28125 C 6.632812 3.675781 6.125 3.925781 5.5625 4.03125 C 5 4.132812 4.441406 4.085938 3.890625 3.890625 C 3.335938 3.691406 2.847656 3.351562 2.421875 2.875 Z M 3.34375 2.046875 C 3.582031 2.316406 3.863281 2.507812 4.1875 2.625 C 4.507812 2.738281 4.835938 2.757812 5.171875 2.6875 C 5.515625 2.613281 5.832031 2.453125 6.125 2.203125 C 6.40625 1.941406 6.601562 1.644531 6.71875 1.3125 C 6.832031 0.976562 6.851562 0.640625 6.78125 0.296875 C 6.707031 -0.0351562 6.550781 -0.335938 6.3125 -0.609375 C 6.0625 -0.878906 5.773438 -1.066406 5.453125 -1.171875 C 5.128906 -1.273438 4.796875 -1.285156 4.453125 -1.203125 C 4.117188 -1.128906 3.8125 -0.960938 3.53125 -0.703125 C 3.238281 -0.453125 3.035156 -0.164062 2.921875 0.15625 C 2.804688 0.488281 2.785156 0.816406 2.859375 1.140625 C 2.929688 1.472656 3.09375 1.773438 3.34375 2.046875 Z M 3.34375 2.046875 "/></g></g></g><g fill="#ffffff" fill-opacity="1"><g transform="translate(298.033938, 186.437106)"><g><path d="M 7.078125 0.671875 C 7.296875 1.171875 7.40625 1.644531 7.40625 2.09375 C 7.40625 2.539062 7.289062 2.929688 7.0625 3.265625 C 6.832031 3.597656 6.507812 3.851562 6.09375 4.03125 C 5.664062 4.21875 5.253906 4.28125 4.859375 4.21875 C 4.472656 4.15625 4.113281 3.972656 3.78125 3.671875 C 3.445312 3.367188 3.171875 2.96875 2.953125 2.46875 L 2.453125 1.296875 L 0.875 1.984375 L 0.296875 0.671875 L 6 -1.8125 Z M 4 1.921875 C 4.164062 2.316406 4.378906 2.578125 4.640625 2.703125 C 4.910156 2.835938 5.203125 2.832031 5.515625 2.6875 C 5.828125 2.550781 6.019531 2.34375 6.09375 2.0625 C 6.175781 1.789062 6.132812 1.457031 5.96875 1.0625 L 5.5 -0.03125 L 3.53125 0.828125 Z M 4 1.921875 "/></g></g></g><g fill="#ffffff" fill-opacity="1"><g transform="translate(301.261549, 194.834317)"><g><path d="M 1.8125 5.375 L 0.671875 5.515625 L 0.09375 0.734375 L 6.265625 -0.015625 L 6.828125 4.640625 L 5.6875 4.78125 L 5.296875 1.546875 L 3.953125 1.71875 L 4.296875 4.59375 L 3.1875 4.71875 L 2.84375 1.84375 L 1.40625 2.015625 Z M 1.8125 5.375 "/></g></g></g><g fill="#ffffff" fill-opacity="1"><g transform="translate(301.951756, 203.268418)"><g><path d="M -0.8125 4.640625 L 1.109375 3.75 L 1.109375 3.6875 L 1.328125 2.4375 L -0.375 2.140625 L -0.125 0.71875 L 6 1.78125 L 5.53125 4.453125 C 5.4375 4.992188 5.265625 5.445312 5.015625 5.8125 C 4.773438 6.1875 4.46875 6.453125 4.09375 6.609375 C 3.726562 6.765625 3.316406 6.804688 2.859375 6.734375 C 2.398438 6.648438 2.023438 6.46875 1.734375 6.1875 C 1.441406 5.914062 1.242188 5.5625 1.140625 5.125 L -1.078125 6.15625 Z M 3.109375 5.296875 C 3.453125 5.347656 3.734375 5.273438 3.953125 5.078125 C 4.171875 4.890625 4.316406 4.585938 4.390625 4.171875 L 4.59375 3 L 2.453125 2.640625 L 2.25 3.8125 C 2.175781 4.226562 2.21875 4.5625 2.375 4.8125 C 2.53125 5.070312 2.773438 5.234375 3.109375 5.296875 Z M 3.109375 5.296875 "/></g></g></g></svg>