<svg xmlns="http://www.w3.org/2000/svg" xmlns:xlink="http://www.w3.org/1999/xlink" width="500" zoomAndPan="magnify" viewBox="0 0 375 374.999991" height="500" preserveAspectRatio="xMidYMid meet" version="1.0"><path fill="#ffffff" d="M 157.808594 19.898438 C 152.550781 20.828125 147.335938 22.003906 142.1875 23.425781 L 142.1875 130.574219 L 55.238281 80.394531 C 51.195312 85.390625 47.378906 90.632812 43.855469 96.1875 C 42.464844 98.367188 41.164062 100.582031 39.886719 102.792969 L 134.492188 157.402344 L 105.335938 157.402344 L 33.183594 115.761719 C 31.707031 118.941406 30.3125 122.152344 29.046875 125.378906 L 84.507812 157.402344 L 19.992188 157.402344 C 19.378906 160.839844 18.839844 164.285156 18.445312 167.738281 L 157.808594 167.738281 L 157.808594 19.898438 " fill-opacity="1" fill-rule="nonzero"/><path fill="#ffffff" d="M 217.167969 354.84375 C 222.421875 353.910156 227.632812 352.742188 232.785156 351.320312 L 232.785156 245.382812 L 319.054688 295.171875 C 323.332031 289.929688 327.386719 284.414062 331.105469 278.558594 C 332.308594 276.671875 333.417969 274.765625 334.535156 272.859375 L 238.367188 217.347656 L 267.523438 217.347656 L 341.324219 259.941406 C 342.828125 256.769531 344.230469 253.566406 345.519531 250.34375 L 288.359375 217.347656 L 354.96875 217.347656 C 355.582031 213.917969 356.121094 210.476562 356.523438 207.023438 L 217.167969 207.023438 L 217.167969 354.84375 " fill-opacity="1" fill-rule="nonzero"/><path fill="#ffffff" d="M 18.496094 207.023438 C 18.90625 210.484375 19.40625 213.925781 20.019531 217.347656 L 80.355469 217.347656 L 28.289062 247.40625 C 31.472656 255.859375 35.355469 264.066406 39.875 271.964844 L 134.5 217.347656 L 142.1875 217.347656 L 142.1875 229.753906 L 47.632812 284.316406 C 49.613281 287.179688 51.726562 289.972656 53.898438 292.71875 L 142.1875 241.765625 L 142.1875 351.351562 C 147.351562 352.785156 152.574219 353.945312 157.808594 354.867188 L 157.808594 207.023438 L 18.496094 207.023438 " fill-opacity="1" fill-rule="nonzero"/><path fill="#ffffff" d="M 356.46875 167.738281 C 356.058594 164.273438 355.558594 160.832031 354.945312 157.402344 L 292.535156 157.402344 L 346.304688 126.363281 C 343.066406 117.9375 339.128906 109.753906 334.5625 101.886719 L 238.386719 157.402344 L 232.785156 157.402344 L 232.785156 143.8125 L 326.722656 89.582031 C 324.714844 86.730469 322.597656 83.941406 320.402344 81.203125 L 232.785156 131.777344 L 232.785156 23.390625 C 227.609375 21.964844 222.394531 20.800781 217.167969 19.878906 L 217.167969 167.738281 L 356.46875 167.738281 " fill-opacity="1" fill-rule="nonzero"/><path fill="#202149" d="M 29.046875 125.378906 C 24.929688 135.859375 21.929688 146.578125 19.992188 157.402344 L 84.507812 157.402344 L 29.046875 125.378906 " fill-opacity="1" fill-rule="nonzero"/><path fill="#202149" d="M 20.019531 217.347656 C 21.863281 227.589844 24.621094 237.652344 28.289062 247.40625 L 80.355469 217.347656 L 20.019531 217.347656 " fill-opacity="1" fill-rule="nonzero"/><path fill="#202149" d="M 53.898438 292.71875 C 65.460938 307.375 79.613281 320.386719 96.269531 330.953125 C 110.863281 340.222656 126.34375 346.972656 142.1875 351.351562 L 142.1875 241.765625 L 53.898438 292.71875 " fill-opacity="1" fill-rule="nonzero"/><path fill="#202149" d="M 232.785156 351.320312 C 265.832031 342.203125 296.203125 323.097656 319.054688 295.171875 L 232.785156 245.382812 L 232.785156 351.320312 " fill-opacity="1" fill-rule="nonzero"/><path fill="#202149" d="M 320.402344 81.203125 C 308.964844 66.886719 295.035156 54.160156 278.699219 43.789062 C 264.101562 34.519531 248.621094 27.773438 232.785156 23.390625 L 232.785156 131.777344 L 320.402344 81.203125 " fill-opacity="1" fill-rule="nonzero"/><path fill="#202149" d="M 142.1875 23.425781 C 108.808594 32.632812 78.152344 52.011719 55.238281 80.394531 L 142.1875 130.574219 L 142.1875 23.425781 " fill-opacity="1" fill-rule="nonzero"/><path fill="#202149" d="M 345.519531 250.34375 C 349.835938 239.558594 352.976562 228.511719 354.96875 217.347656 L 288.359375 217.347656 L 345.519531 250.34375 " fill-opacity="1" fill-rule="nonzero"/><path fill="#202149" d="M 354.945312 157.402344 C 353.042969 146.824219 350.160156 136.425781 346.304688 126.363281 L 292.535156 157.402344 L 354.945312 157.402344 " fill-opacity="1" fill-rule="nonzero"/><path fill="#e52c33" d="M 238.367188 217.347656 L 334.535156 272.859375 C 337.003906 268.617188 339.253906 264.304688 341.324219 259.941406 L 267.523438 217.347656 L 238.367188 217.347656 " fill-opacity="1" fill-rule="nonzero"/><path fill="#e52c33" d="M 232.785156 157.402344 L 238.386719 157.402344 L 334.5625 101.886719 C 332.125 97.691406 329.527344 93.582031 326.722656 89.582031 L 232.785156 143.8125 L 232.785156 157.402344 " fill-opacity="1" fill-rule="nonzero"/><path fill="#e52c33" d="M 134.492188 157.402344 L 39.886719 102.792969 C 37.445312 107.054688 35.230469 111.382812 33.183594 115.761719 L 105.335938 157.402344 L 134.492188 157.402344 " fill-opacity="1" fill-rule="nonzero"/><path fill="#e52c33" d="M 142.1875 217.347656 L 134.5 217.347656 L 39.875 271.964844 C 42.289062 276.171875 44.851562 280.308594 47.632812 284.316406 L 142.1875 229.753906 L 142.1875 217.347656 " fill-opacity="1" fill-rule="nonzero"/><path fill="#e52c33" d="M 356.46875 167.738281 L 217.167969 167.738281 L 217.167969 19.878906 C 197.378906 16.378906 177.285156 16.441406 157.808594 19.898438 L 157.808594 167.738281 L 18.445312 167.738281 C 16.929688 180.855469 16.980469 194.039062 18.496094 207.023438 L 157.808594 207.023438 L 157.808594 354.867188 C 177.59375 358.363281 197.6875 358.304688 217.167969 354.84375 L 217.167969 207.023438 L 356.523438 207.023438 C 358.03125 193.90625 357.984375 180.722656 356.46875 167.738281 " fill-opacity="1" fill-rule="nonzero"/></svg>