<svg id="visual" viewBox="0 0 900 600" width="900" height="600" xmlns="http://www.w3.org/2000/svg" xmlns:xlink="http://www.w3.org/1999/xlink" version="1.1"><g stroke-width="1" stroke-linejoin="bevel"><path d="M465 277L566 295L514 223Z" fill="#d09766" stroke="#d09766"></path><path d="M566 295L570 225L514 223Z" fill="#b46d3e" stroke="#b46d3e"></path><path d="M465 277L532 369L566 295Z" fill="#a5582c" stroke="#a5582c"></path><path d="M364 201L406 336L465 277Z" fill="#d09766" stroke="#d09766"></path><path d="M465 277L406 336L532 369Z" fill="#a5582c" stroke="#a5582c"></path><path d="M570 225L561 123L514 223Z" fill="#e5b687" stroke="#e5b687"></path><path d="M514 223L364 201L465 277Z" fill="#deac7c" stroke="#deac7c"></path><path d="M406 336L423 406L532 369Z" fill="#b46d3e" stroke="#b46d3e"></path><path d="M524 97L364 201L514 223Z" fill="#deac7c" stroke="#deac7c"></path><path d="M406 336L336 398L423 406Z" fill="#ecc193" stroke="#ecc193"></path><path d="M561 123L524 97L514 223Z" fill="#deac7c" stroke="#deac7c"></path><path d="M670 390L697 296L566 295Z" fill="#b46d3e" stroke="#b46d3e"></path><path d="M566 295L697 296L570 225Z" fill="#d09766" stroke="#d09766"></path><path d="M570 225L725 125L561 123Z" fill="#bb7748" stroke="#bb7748"></path><path d="M635 430L670 390L532 369Z" fill="#c98c5c" stroke="#c98c5c"></path><path d="M532 369L670 390L566 295Z" fill="#c28252" stroke="#c28252"></path><path d="M423 406L488 466L532 369Z" fill="#d7a171" stroke="#d7a171"></path><path d="M364 201L324 282L406 336Z" fill="#deac7c" stroke="#deac7c"></path><path d="M488 466L635 430L532 369Z" fill="#e5b687" stroke="#e5b687"></path><path d="M423 406L435 463L488 466Z" fill="#deac7c" stroke="#deac7c"></path><path d="M336 398L435 463L423 406Z" fill="#a5582c" stroke="#a5582c"></path><path d="M324 282L336 398L406 336Z" fill="#d7a171" stroke="#d7a171"></path><path d="M488 466L629 474L635 430Z" fill="#b46d3e" stroke="#b46d3e"></path><path d="M635 430L724 479L670 390Z" fill="#c98c5c" stroke="#c98c5c"></path><path d="M494 600L629 474L488 466Z" fill="#d7a171" stroke="#d7a171"></path><path d="M828 274L739 212L697 296Z" fill="#d09766" stroke="#d09766"></path><path d="M697 296L739 212L570 225Z" fill="#d09766" stroke="#d09766"></path><path d="M627 0L523 0L524 97Z" fill="#d7a171" stroke="#d7a171"></path><path d="M524 97L380 77L364 201Z" fill="#c28252" stroke="#c28252"></path><path d="M364 201L285 181L324 282Z" fill="#e5b687" stroke="#e5b687"></path><path d="M380 77L285 181L364 201Z" fill="#deac7c" stroke="#deac7c"></path><path d="M324 282L212 314L336 398Z" fill="#d09766" stroke="#d09766"></path><path d="M739 212L725 125L570 225Z" fill="#ecc193" stroke="#ecc193"></path><path d="M627 0L524 97L561 123Z" fill="#e5b687" stroke="#e5b687"></path><path d="M524 97L523 0L380 77Z" fill="#ecc193" stroke="#ecc193"></path><path d="M629 474L724 479L635 430Z" fill="#c98c5c" stroke="#c98c5c"></path><path d="M825 429L828 274L697 296Z" fill="#e5b687" stroke="#e5b687"></path><path d="M199 128L231 225L285 181Z" fill="#ecc193" stroke="#ecc193"></path><path d="M285 181L231 225L324 282Z" fill="#c28252" stroke="#c28252"></path><path d="M725 125L627 0L561 123Z" fill="#c28252" stroke="#c28252"></path><path d="M380 77L271 103L285 181Z" fill="#e5b687" stroke="#e5b687"></path><path d="M292 0L271 103L380 77Z" fill="#bb7748" stroke="#bb7748"></path><path d="M231 225L212 314L324 282Z" fill="#deac7c" stroke="#deac7c"></path><path d="M523 0L374 0L380 77Z" fill="#b46d3e" stroke="#b46d3e"></path><path d="M825 429L697 296L670 390Z" fill="#e5b687" stroke="#e5b687"></path><path d="M739 212L824 186L725 125Z" fill="#deac7c" stroke="#deac7c"></path><path d="M828 274L824 186L739 212Z" fill="#deac7c" stroke="#deac7c"></path><path d="M725 125L712 0L627 0Z" fill="#c28252" stroke="#c28252"></path><path d="M407 600L494 600L435 463Z" fill="#bb7748" stroke="#bb7748"></path><path d="M435 463L494 600L488 466Z" fill="#e5b687" stroke="#e5b687"></path><path d="M629 474L680 600L724 479Z" fill="#deac7c" stroke="#deac7c"></path><path d="M407 600L435 463L318 600Z" fill="#b46d3e" stroke="#b46d3e"></path><path d="M802 0L712 0L725 125Z" fill="#b46d3e" stroke="#b46d3e"></path><path d="M263 525L435 463L336 398Z" fill="#deac7c" stroke="#deac7c"></path><path d="M790 525L825 429L724 479Z" fill="#a5582c" stroke="#a5582c"></path><path d="M724 479L825 429L670 390Z" fill="#c28252" stroke="#c28252"></path><path d="M494 600L634 600L629 474Z" fill="#a5582c" stroke="#a5582c"></path><path d="M271 103L199 128L285 181Z" fill="#c98c5c" stroke="#c98c5c"></path><path d="M231 225L93 266L212 314Z" fill="#d7a171" stroke="#d7a171"></path><path d="M138 77L199 128L186 0Z" fill="#ecc193" stroke="#ecc193"></path><path d="M374 0L292 0L380 77Z" fill="#d09766" stroke="#d09766"></path><path d="M900 132L826 98L824 186Z" fill="#bb7748" stroke="#bb7748"></path><path d="M824 186L826 98L725 125Z" fill="#e5b687" stroke="#e5b687"></path><path d="M160 403L263 525L336 398Z" fill="#e5b687" stroke="#e5b687"></path><path d="M634 600L680 600L629 474Z" fill="#deac7c" stroke="#deac7c"></path><path d="M680 600L790 525L724 479Z" fill="#ecc193" stroke="#ecc193"></path><path d="M93 266L160 403L212 314Z" fill="#ecc193" stroke="#ecc193"></path><path d="M212 314L160 403L336 398Z" fill="#deac7c" stroke="#deac7c"></path><path d="M222 600L318 600L263 525Z" fill="#e5b687" stroke="#e5b687"></path><path d="M263 525L318 600L435 463Z" fill="#ecc193" stroke="#ecc193"></path><path d="M825 429L900 334L828 274Z" fill="#c98c5c" stroke="#c98c5c"></path><path d="M828 274L900 198L824 186Z" fill="#bb7748" stroke="#bb7748"></path><path d="M900 423L900 334L825 429Z" fill="#ecc193" stroke="#ecc193"></path><path d="M900 334L900 198L828 274Z" fill="#e5b687" stroke="#e5b687"></path><path d="M900 0L802 0L826 98Z" fill="#bb7748" stroke="#bb7748"></path><path d="M826 98L802 0L725 125Z" fill="#d7a171" stroke="#d7a171"></path><path d="M160 403L191 520L263 525Z" fill="#ac6235" stroke="#ac6235"></path><path d="M900 198L900 132L824 186Z" fill="#c98c5c" stroke="#c98c5c"></path><path d="M900 495L900 423L825 429Z" fill="#b46d3e" stroke="#b46d3e"></path><path d="M79 202L231 225L199 128Z" fill="#deac7c" stroke="#deac7c"></path><path d="M79 202L93 266L231 225Z" fill="#bb7748" stroke="#bb7748"></path><path d="M160 403L72 489L191 520Z" fill="#e5b687" stroke="#e5b687"></path><path d="M186 0L199 128L271 103Z" fill="#e5b687" stroke="#e5b687"></path><path d="M292 0L186 0L271 103Z" fill="#ac6235" stroke="#ac6235"></path><path d="M191 520L222 600L263 525Z" fill="#a5582c" stroke="#a5582c"></path><path d="M824 600L900 495L790 525Z" fill="#ac6235" stroke="#ac6235"></path><path d="M790 525L900 495L825 429Z" fill="#d09766" stroke="#d09766"></path><path d="M138 77L79 202L199 128Z" fill="#d09766" stroke="#d09766"></path><path d="M680 600L824 600L790 525Z" fill="#e5b687" stroke="#e5b687"></path><path d="M900 132L900 0L826 98Z" fill="#b46d3e" stroke="#b46d3e"></path><path d="M93 266L63 422L160 403Z" fill="#ecc193" stroke="#ecc193"></path><path d="M191 520L95 600L222 600Z" fill="#c98c5c" stroke="#c98c5c"></path><path d="M0 317L63 422L93 266Z" fill="#d09766" stroke="#d09766"></path><path d="M63 422L72 489L160 403Z" fill="#c98c5c" stroke="#c98c5c"></path><path d="M824 600L900 600L900 495Z" fill="#d09766" stroke="#d09766"></path><path d="M0 187L0 317L93 266Z" fill="#e5b687" stroke="#e5b687"></path><path d="M63 422L0 494L72 489Z" fill="#e5b687" stroke="#e5b687"></path><path d="M0 187L93 266L79 202Z" fill="#ac6235" stroke="#ac6235"></path><path d="M186 0L74 0L138 77Z" fill="#c98c5c" stroke="#c98c5c"></path><path d="M0 99L0 187L79 202Z" fill="#bb7748" stroke="#bb7748"></path><path d="M0 99L79 202L138 77Z" fill="#c28252" stroke="#c28252"></path><path d="M0 317L0 388L63 422Z" fill="#c28252" stroke="#c28252"></path><path d="M0 600L95 600L72 489Z" fill="#c98c5c" stroke="#c98c5c"></path><path d="M72 489L95 600L191 520Z" fill="#d09766" stroke="#d09766"></path><path d="M74 0L0 99L138 77Z" fill="#c28252" stroke="#c28252"></path><path d="M0 388L0 494L63 422Z" fill="#d09766" stroke="#d09766"></path><path d="M74 0L0 0L0 99Z" fill="#deac7c" stroke="#deac7c"></path><path d="M0 494L0 600L72 489Z" fill="#ecc193" stroke="#ecc193"></path></g></svg>