<svg id="visual" viewBox="0 0 900 600" width="900" height="600" xmlns="http://www.w3.org/2000/svg" xmlns:xlink="http://www.w3.org/1999/xlink" version="1.1"><g transform="translate(450 300.025)"><path d="M115.2 -179.3C149.3 -157.3 177 -125.4 193.8 -88.5C210.7 -51.6 216.7 -9.8 210.9 30.3C205.2 70.5 187.6 108.9 161 139.5C134.5 170.2 98.9 193 60 204.5C21.1 215.9 -21.1 215.9 -60 204.5C-98.9 193 -134.5 170.2 -161.1 139.6C-187.6 108.9 -205.2 70.5 -210.9 30.3C-216.7 -9.8 -210.7 -51.6 -193.8 -88.5C-177 -125.4 -149.3 -157.3 -115.2 -179.3C-81.1 -201.2 -40.5 -213.1 0 -213.1C40.5 -213.1 81.1 -201.2 115.2 -179.3" fill="#A5582C"></path></g></svg>