<svg id="visual" viewBox="0 0 900 600" width="900" height="600" xmlns="http://www.w3.org/2000/svg" xmlns:xlink="http://www.w3.org/1999/xlink" version="1.1"><rect x="0" y="0" width="900" height="600" fill="#ECC194"></rect><path d="M0 393L129 358L257 416L386 359L514 351L643 423L771 434L900 353L900 601L771 601L643 601L514 601L386 601L257 601L129 601L0 601Z" fill="#a5582c"></path><path d="M0 439L129 453L257 396L386 404L514 454L643 399L771 443L900 451L900 601L771 601L643 601L514 601L386 601L257 601L129 601L0 601Z" fill="#8c4a26"></path><path d="M0 442L129 443L257 503L386 473L514 451L643 451L771 483L900 451L900 601L771 601L643 601L514 601L386 601L257 601L129 601L0 601Z" fill="#743c1f"></path><path d="M0 483L129 516L257 522L386 492L514 488L643 531L771 498L900 517L900 601L771 601L643 601L514 601L386 601L257 601L129 601L0 601Z" fill="#5c2f19"></path><path d="M0 548L129 529L257 565L386 546L514 535L643 552L771 547L900 553L900 601L771 601L643 601L514 601L386 601L257 601L129 601L0 601Z" fill="#452212"></path></svg>